<svg width="25" height="25" viewBox="0 0 25 25" fill="none" xmlns="http://www.w3.org/2000/svg">
<g clip-path="url(#clip0_449_423)">
<path d="M24.333 12.1217C24.3326 9.82847 23.6752 7.58341 22.4386 5.65225C21.2019 3.7211 19.4378 2.18472 17.3551 1.225C15.2724 0.265277 12.9584 -0.0775893 10.6869 0.236987C8.41536 0.551564 6.28155 1.51041 4.53806 3.00001C2.79457 4.48961 1.5144 6.44759 0.849112 8.64214C0.183822 10.8367 0.161272 13.1759 0.78413 15.3829C1.40699 17.5899 2.64917 19.5722 4.36362 21.0951C6.07807 22.618 8.19299 23.6178 10.458 23.9762V15.5904H7.41151V12.1217H10.458V9.4779C10.458 6.4704 12.2498 4.80915 14.9903 4.80915C15.8903 4.82163 16.7882 4.89984 17.6768 5.04315V7.99665H16.1633C15.9053 7.9624 15.643 7.98662 15.3958 8.06753C15.1485 8.14843 14.9226 8.28394 14.7348 8.46402C14.547 8.6441 14.4022 8.86413 14.311 9.1078C14.2198 9.35147 14.1846 9.61253 14.208 9.87165V12.1217H17.5365L17.004 15.5904H14.208V23.9762C17.0309 23.5296 19.6016 22.0902 21.4578 19.9171C23.3139 17.7439 24.3335 14.9796 24.333 12.1217Z" fill="white"/>
</g>
<defs>
<clipPath id="clip0_449_423">
<rect width="24" height="24" fill="white" transform="translate(0.333008 0.121094)"/>
</clipPath>
</defs>
</svg>
