<svg width="25" height="25" viewBox="0 0 25 25" fill="none" xmlns="http://www.w3.org/2000/svg">
<g clip-path="url(#clip0_449_426)">
<path d="M12.333 2.89609C15.333 2.89609 15.693 2.90734 16.8788 2.96134C17.5923 2.96976 18.2992 3.10093 18.9683 3.34909C19.4567 3.52942 19.8986 3.81697 20.2613 4.19059C20.6349 4.55327 20.9224 4.99511 21.1028 5.48359C21.3509 6.15269 21.4821 6.85951 21.4905 7.57309C21.5445 8.76109 21.558 9.12109 21.558 12.1211C21.558 15.1211 21.5468 15.4811 21.4928 16.6668C21.4843 17.3804 21.3532 18.0872 21.105 18.7563C20.9177 19.2413 20.6311 19.6817 20.2635 20.0493C19.8959 20.4169 19.4555 20.7036 18.9705 20.8908C18.3014 21.139 17.5946 21.2702 16.881 21.2786C15.6953 21.3326 15.339 21.3438 12.3353 21.3438C9.33151 21.3438 8.97526 21.3326 7.78951 21.2786C7.07592 21.2702 6.36911 21.139 5.70001 20.8908C5.21152 20.7105 4.76969 20.423 4.40701 20.0493C4.03338 19.6867 3.74583 19.2448 3.56551 18.7563C3.31734 18.0872 3.18618 17.3804 3.17776 16.6668C3.12151 15.4811 3.10801 15.1248 3.10801 12.1211C3.10801 9.11734 3.11926 8.76109 3.17326 7.57534C3.18168 6.86176 3.31284 6.15494 3.56101 5.48584C3.74199 4.99715 4.03032 4.5553 4.40476 4.19284C4.76744 3.81922 5.20927 3.53167 5.69776 3.35134C6.36686 3.10318 7.07367 2.97201 7.78726 2.96359C8.97301 2.90959 9.33301 2.89609 12.333 2.89609ZM12.333 0.871094C9.27751 0.871094 8.89426 0.883844 7.69501 0.938594C6.76142 0.958373 5.83791 1.13588 4.96351 1.46359C4.21333 1.74593 3.5336 2.18816 2.97151 2.75959C2.39927 3.32146 1.95625 4.00121 1.67326 4.75159C1.34554 5.62599 1.16804 6.54951 1.14826 7.48309C1.09576 8.68234 1.08301 9.06559 1.08301 12.1211C1.08301 15.1766 1.09576 15.5598 1.15051 16.7591C1.17029 17.6927 1.34779 18.6162 1.67551 19.4906C1.9585 20.241 2.40152 20.9207 2.97376 21.4826C3.53563 22.0548 4.21538 22.4979 4.96576 22.7808C5.84016 23.1086 6.76367 23.2861 7.69726 23.3058C8.89726 23.3606 9.27976 23.3733 12.3353 23.3733C15.3908 23.3733 15.774 23.3606 16.9733 23.3058C17.9068 23.2861 18.8304 23.1086 19.7048 22.7808C20.4518 22.4913 21.1302 22.0491 21.6968 21.4826C22.2633 20.9161 22.7055 20.2376 22.995 19.4906C23.3227 18.6162 23.5002 17.6927 23.52 16.7591C23.5748 15.5591 23.5875 15.1766 23.5875 12.1211C23.5875 9.06559 23.5748 8.68234 23.52 7.48309C23.5002 6.54951 23.3227 5.62599 22.995 4.75159C22.712 4.00121 22.269 3.32146 21.6968 2.75959C21.1349 2.18735 20.4551 1.74434 19.7048 1.46134C18.8304 1.13363 17.9068 0.956123 16.9733 0.936344C15.7718 0.883844 15.3885 0.871094 12.333 0.871094Z" fill="white"/>
<path d="M12.3326 6.34619C11.1904 6.34619 10.0739 6.68489 9.1242 7.31945C8.17451 7.95402 7.43431 8.85595 6.99722 9.91119C6.56012 10.9664 6.44576 12.1276 6.66858 13.2478C6.89141 14.3681 7.44143 15.3971 8.24908 16.2047C9.05673 17.0124 10.0857 17.5624 11.206 17.7852C12.3262 18.0081 13.4874 17.8937 14.5426 17.4566C15.5979 17.0195 16.4998 16.2793 17.1344 15.3296C17.7689 14.3799 18.1076 13.2634 18.1076 12.1212C18.1076 10.5896 17.4992 9.12067 16.4162 8.03765C15.3331 6.95463 13.8642 6.34619 12.3326 6.34619ZM12.3326 15.8712C11.5909 15.8712 10.8659 15.6513 10.2492 15.2392C9.63255 14.8271 9.1519 14.2415 8.86807 13.5563C8.58424 12.871 8.50998 12.117 8.65467 11.3896C8.79937 10.6622 9.15652 9.99399 9.68097 9.46954C10.2054 8.94509 10.8736 8.58794 11.601 8.44325C12.3285 8.29855 13.0825 8.37281 13.7677 8.65664C14.4529 8.94047 15.0386 9.42112 15.4506 10.0378C15.8627 10.6545 16.0826 11.3795 16.0826 12.1212C16.0826 13.1158 15.6875 14.0696 14.9843 14.7728C14.281 15.4761 13.3272 15.8712 12.3326 15.8712Z" fill="white"/>
<path d="M18.3383 7.46563C19.0839 7.46563 19.6883 6.86121 19.6883 6.11563C19.6883 5.37004 19.0839 4.76562 18.3383 4.76562C17.5927 4.76562 16.9883 5.37004 16.9883 6.11563C16.9883 6.86121 17.5927 7.46563 18.3383 7.46563Z" fill="white"/>
</g>
<defs>
<clipPath id="clip0_449_426">
<rect width="24" height="24" fill="white" transform="translate(0.333008 0.121094)"/>
</clipPath>
</defs>
</svg>
