<svg width="25" height="25" viewBox="0 0 25 25" fill="none" xmlns="http://www.w3.org/2000/svg">
<g clip-path="url(#clip0_449_438)">
<path d="M23.833 7.12109V1.12109H17.833" stroke="white" stroke-width="2" stroke-linecap="round" stroke-linejoin="round"/>
<path d="M16.833 8.12109L23.833 1.12109" stroke="white" stroke-width="2" stroke-linecap="round" stroke-linejoin="round"/>
<path d="M22.8334 17.0412V20.0412C22.8346 20.3197 22.7775 20.5954 22.6659 20.8505C22.5544 21.1057 22.3907 21.3348 22.1855 21.5231C21.9803 21.7113 21.738 21.8547 21.4742 21.9439C21.2104 22.0331 20.9308 22.0663 20.6534 22.0412C17.5763 21.7068 14.6204 20.6553 12.0234 18.9712C9.60726 17.4359 7.55877 15.3874 6.02343 12.9712C4.33341 10.3624 3.28167 7.39219 2.95343 4.30119C2.92844 4.02466 2.9613 3.74595 3.04993 3.48282C3.13856 3.21968 3.281 2.97788 3.4682 2.77281C3.65539 2.56774 3.88323 2.4039 4.13722 2.29171C4.39121 2.17953 4.66577 2.12145 4.94343 2.12119H7.94343C8.42874 2.11641 8.89922 2.28827 9.26719 2.60472C9.63516 2.92118 9.87551 3.36064 9.94343 3.84119C10.0701 4.80126 10.3049 5.74392 10.6434 6.65119C10.778 7.00911 10.8071 7.39811 10.7273 7.77207C10.6476 8.14604 10.4623 8.4893 10.1934 8.76119L8.92343 10.0312C10.347 12.5347 12.4199 14.6076 14.9234 16.0312L16.1934 14.7612C16.4653 14.4923 16.8086 14.307 17.1825 14.2273C17.5565 14.1475 17.9455 14.1766 18.3034 14.3112C19.2107 14.6497 20.1534 14.8846 21.1134 15.0112C21.5992 15.0797 22.0428 15.3244 22.36 15.6987C22.6771 16.073 22.8456 16.5508 22.8334 17.0412Z" stroke="white" stroke-width="2" stroke-linecap="round" stroke-linejoin="round"/>
</g>
<defs>
<clipPath id="clip0_449_438">
<rect width="24" height="24" fill="white" transform="translate(0.833008 0.121094)"/>
</clipPath>
</defs>
</svg>
