<svg width="25" height="25" viewBox="0 0 25 25" fill="none" xmlns="http://www.w3.org/2000/svg">
<g clip-path="url(#clip0_449_431)">
<path d="M22.5564 0.121094H2.10488C1.1252 0.121094 0.333008 0.894531 0.333008 1.85078V22.3867C0.333008 23.343 1.1252 24.1211 2.10488 24.1211H22.5564C23.5361 24.1211 24.333 23.343 24.333 22.3914V1.85078C24.333 0.894531 23.5361 0.121094 22.5564 0.121094ZM7.45332 20.5727H3.89082V9.11641H7.45332V20.5727ZM5.67207 7.55547C4.52832 7.55547 3.60488 6.63203 3.60488 5.49297C3.60488 4.35391 4.52832 3.43047 5.67207 3.43047C6.81113 3.43047 7.73457 4.35391 7.73457 5.49297C7.73457 6.62734 6.81113 7.55547 5.67207 7.55547ZM20.7846 20.5727H17.2268V15.0039C17.2268 13.6773 17.2033 11.9664 15.3752 11.9664C13.5236 11.9664 13.2424 13.4148 13.2424 14.9102V20.5727H9.68926V9.11641H13.1018V10.682H13.1486C13.6221 9.78203 14.7846 8.83047 16.5143 8.83047C20.1189 8.83047 20.7846 11.2023 20.7846 14.2867V20.5727Z" fill="white"/>
</g>
<defs>
<clipPath id="clip0_449_431">
<rect width="24" height="24" fill="white" transform="translate(0.333008 0.121094)"/>
</clipPath>
</defs>
</svg>
